<svg width="23" height="23" viewBox="0 0 23 23" fill="none" xmlns="http://www.w3.org/2000/svg">
<path d="M11.5 23C14.55 23 17.4751 21.7884 19.6318 19.6318C21.7884 17.4751 23 14.55 23 11.5C23 8.45002 21.7884 5.52489 19.6318 3.36817C17.4751 1.21158 14.55 0 11.5 0C8.45002 0 5.52489 1.21158 3.36817 3.36817C1.21158 5.52489 0 8.45002 0 11.5C0 13.5186 0.531357 15.5017 1.54067 17.2499C2.54999 18.9982 4.00169 20.4499 5.74993 21.4592C7.49818 22.4685 9.48124 22.9999 11.4999 22.9999L11.5 23ZM11.5 1.53358C14.1433 1.53358 16.6782 2.58364 18.5476 4.45271C20.4166 6.32177 21.4667 8.85683 21.4667 11.5003C21.4667 14.1437 20.4166 16.6785 18.5476 18.5478C16.6785 20.4169 14.1434 21.4669 11.5 21.4669C8.85656 21.4669 6.32177 20.4169 4.45244 18.5478C2.58337 16.6788 1.53332 14.1437 1.53332 11.5003C1.53332 8.85683 2.58337 6.32204 4.45244 4.45271C6.32151 2.58364 8.85656 1.53358 11.5 1.53358Z" fill="#B43434"/>
<path d="M11.5005 7.66688C11.2972 7.66688 11.1022 7.74766 10.9584 7.8914C10.8147 8.03515 10.7339 8.23024 10.7339 8.43354V16.8668C10.7339 17.1408 10.88 17.3938 11.1172 17.5307C11.3544 17.6676 11.6467 17.6676 11.8839 17.5307C12.1211 17.3938 12.2672 17.1407 12.2672 16.8668V8.43354C12.2672 8.23024 12.1864 8.03515 12.0427 7.8914C11.8989 7.74766 11.7038 7.66688 11.5005 7.66688Z" fill="#B43434"/>
<path d="M12.2672 5.36701C12.2672 4.94363 11.9239 4.60035 11.5005 4.60035C11.0772 4.60035 10.7339 4.94363 10.7339 5.36701C10.7339 5.79038 11.0772 6.13367 11.5005 6.13367C11.9239 6.13367 12.2672 5.79038 12.2672 5.36701Z" fill="#B43434"/>
</svg>
