<svg width="19" height="8" viewBox="0 0 19 8" fill="none" xmlns="http://www.w3.org/2000/svg">
<path fill-rule="evenodd" clip-rule="evenodd" d="M18.8204 0.000231181C18.926 0.0204197 19.0018 0.113657 19 0.221227V7.73294C19 7.855 18.901 7.95394 18.779 7.95394H15.1198C14.9977 7.95394 14.8989 7.855 14.8988 7.73294C14.8988 7.24042 14.5189 6.84929 14.0496 6.84929C13.5909 6.84929 13.2073 7.24042 13.2073 7.73294C13.2073 7.855 13.1085 7.95394 12.9864 7.95394H0.220842C0.0987854 7.95394 -0.000152588 7.855 -0.000152588 7.73294V0.221227C-0.000152588 0.0991699 0.0987854 0.000231181 0.220842 0.000231181H12.9797C13.1018 0.000231181 13.2007 0.0991699 13.2007 0.221227C13.2007 0.724086 13.5843 1.11182 14.0431 1.11182C14.5124 1.11182 14.8922 0.724082 14.8922 0.221227C14.8922 0.0991699 14.9912 0.000231181 15.1131 0.000231181H18.7792C18.7861 -7.70602e-05 18.7931 -7.70602e-05 18.7999 0.000231181C18.8068 -7.70602e-05 18.8137 -7.70602e-05 18.8207 0.000231181H18.8204ZM18.5581 0.442057H15.3132C15.2236 0.99147 14.8097 1.43176 14.2776 1.53283V2.47184L14.2774 2.47199C14.2783 2.53117 14.2554 2.58804 14.2139 2.63026C14.1723 2.67233 14.1157 2.69607 14.0566 2.69607C13.9974 2.69607 13.9407 2.67234 13.8992 2.63026C13.8576 2.58804 13.8348 2.53117 13.8356 2.47199V1.53299C13.2951 1.4416 12.8701 1.0007 12.7793 0.442212H0.441401V7.51206H12.786C12.8771 6.96142 13.2984 6.52173 13.8355 6.42803V5.55112V5.55128C13.8337 5.49025 13.8571 5.43107 13.9003 5.38792C13.9434 5.34477 14.0024 5.3215 14.0635 5.32335C14.122 5.3252 14.1775 5.35017 14.2176 5.39301C14.2578 5.43569 14.2794 5.49256 14.2774 5.55128V6.42818C14.8127 6.52666 15.2291 6.96604 15.3199 7.51221H18.5579V0.442366L18.5581 0.442057Z" fill="#0C95EB"/>
</svg>
