<svg width="18" height="19" viewBox="0 0 18 19" fill="none" xmlns="http://www.w3.org/2000/svg">
<path d="M14.7375 19.0001H2.45363L0.100952 11.24C-0.0971285 10.6324 0.00191197 9.96966 0.348631 9.4173C0.695346 8.86495 1.21541 8.58875 1.80982 8.58875H15.4063C16.0007 8.58875 16.5208 8.8925 16.8675 9.4173C17.2142 9.94192 17.2885 10.6048 17.1152 11.24L14.7375 19.0001ZM2.80031 18.4479H14.3661L16.6198 11.0744C16.7684 10.6324 16.6941 10.1354 16.4464 9.74876C16.1987 9.36214 15.8024 9.14124 15.3815 9.14124L1.80969 9.14106C1.38866 9.14106 0.992348 9.36194 0.744817 9.74859C0.497138 10.1352 0.422823 10.6047 0.571457 11.0742L2.80031 18.4479Z" fill="white"/>
<path d="M15.9511 9.14095H1.24011L7.43138 0.635222C7.7285 0.221032 8.14954 0 8.59544 0C9.04119 0 9.46222 0.220881 9.75951 0.635222L15.9511 9.14095ZM2.28015 8.58859H14.9107L9.36299 0.994066C9.16491 0.717879 8.89253 0.552136 8.59524 0.552136C8.29813 0.552136 8.02559 0.717883 7.8275 0.994066L2.28015 8.58859Z" fill="white"/>
</svg>
