<svg width="12" height="14" viewBox="0 0 12 14" fill="none" xmlns="http://www.w3.org/2000/svg">
<path d="M11.8075 5.64878H0.192617C0.0862544 5.64878 0 5.56252 0 5.45616V3.0381C0 2.93184 0.0862544 2.84558 0.192617 2.84558H11.8075C11.9137 2.84558 12 2.93184 12 3.0381V5.45616C11.9993 5.56324 11.9137 5.64878 11.8075 5.64878ZM0.385205 5.26436H11.6149V3.23071H0.385205V5.26436Z" fill="#E0888B"/>
<path d="M10.9595 13.0076H1.0393C0.933036 13.0076 0.84668 12.9213 0.84668 12.815V5.45613C0.84668 5.34987 0.933036 5.26361 1.0393 5.26361C1.14566 5.26361 1.23191 5.34987 1.23191 5.45613V12.6224H10.7678V5.45613C10.7678 5.34987 10.854 5.26361 10.9603 5.26361C11.0666 5.26361 11.1529 5.34987 11.1529 5.45613V12.815C11.1522 12.9221 11.0658 13.0076 10.9596 13.0076H10.9595Z" fill="#E0888B"/>
<path d="M7.39949 5.64878H4.60082C4.49456 5.64878 4.4082 5.56252 4.4082 5.45616V3.0381C4.4082 2.93184 4.49456 2.84558 4.60082 2.84558H7.39949C7.50585 2.84558 7.59211 2.93184 7.59211 3.0381V5.45616C7.59211 5.56324 7.50657 5.64878 7.39949 5.64878ZM4.79349 5.26436H7.20769V3.23071H4.79349V5.26436Z" fill="#E0888B"/>
<path d="M7.07924 13.0076H4.92309C4.81672 13.0076 4.73047 12.9213 4.73047 12.815V5.45611C4.73047 5.34985 4.81672 5.26349 4.92309 5.26349H7.07924C7.1856 5.26349 7.27104 5.34985 7.27104 5.45611V12.815C7.27104 12.922 7.18478 13.0076 7.07924 13.0076ZM5.11489 12.6232H6.88589V5.6487H5.11489V12.6232Z" fill="#E0888B"/>
<path d="M5.93799 3.23078H2.92295C2.03245 3.23078 1.30762 2.50584 1.30762 1.61534C1.30762 0.727994 2.01562 0.0185794 2.91919 0H2.95155C4.68317 0 6.0536 2.83395 6.11135 2.95572C6.13983 3.01513 6.13514 3.08515 6.10043 3.14139C6.06583 3.19692 6.00417 3.23081 5.93793 3.23081L5.93799 3.23078ZM2.92687 0.385333C2.2352 0.399215 1.69206 0.939919 1.69206 1.61625C1.69206 2.29486 2.2443 2.84646 2.92217 2.84646H5.62049C5.23843 2.14776 4.14632 0.356014 2.92687 0.385307V0.385333ZM2.92299 0.192716H2.92442H2.92299Z" fill="#E0888B"/>
<path d="M9.01402 3.23073H5.99898C5.93273 3.23073 5.87179 3.19684 5.83627 3.14131C5.80085 3.08588 5.79707 3.01576 5.82555 2.95563C5.88333 2.83325 7.27992 -0.0317029 9.01854 0.000700027C9.92211 0.0191757 10.6301 0.728589 10.6301 1.61604C10.6293 2.50654 9.90437 3.23067 9.01384 3.23067L9.01402 3.23073ZM6.31569 2.84631H9.01402C9.69262 2.84631 10.2443 2.29397 10.2443 1.6161C10.2443 0.940551 9.702 0.399763 9.00952 0.385181C7.79013 0.363541 6.69852 2.14761 6.31564 2.84634L6.31569 2.84631Z" fill="#E0888B"/>
</svg>
