<svg width="149" height="158" viewBox="0 0 149 158" fill="none" xmlns="http://www.w3.org/2000/svg">
<path d="M118.434 59.6167H118.569V8.77837M118.434 59.6167C102.523 59.6167 89.6255 72.5145 89.6255 88.4251C89.6255 104.336 102.523 117.233 118.434 117.233M118.434 59.6167C134.344 59.6167 147.242 72.5145 147.242 88.4251C147.242 104.336 134.344 117.233 118.434 117.233M118.434 117.233H118.569V140.581M118.569 140.581L119.634 155.645H2L3.81973 140.581M118.569 140.581H3.81973M3.81973 140.581V8.77837M3.81973 8.77837L17.6045 5.60105L9.20209 2M3.81973 8.77837H118.569M9.20209 2H110.031M9.20209 2V6.8014M110.031 2L101.629 5.60105L118.569 8.77837M110.031 2V6.8014M86.0244 21.2056V30.1998C86.0244 43.7361 74.9512 54.8153 61.4173 54.8153C47.8833 54.8153 36.8101 43.7373 36.8101 30.1998V21.2056" stroke="#4A4A4A" stroke-width="3" stroke-linecap="round" stroke-linejoin="round"/>
<path d="M57.216 105.233C57.21 104.639 57.0036 101.632 53.615 101.632C53.2966 101.632 52.9912 101.506 52.7659 101.281C52.5405 101.056 52.4138 100.751 52.4135 100.433C52.4131 100.114 52.5393 99.8089 52.7642 99.5836C52.9891 99.3582 53.2942 99.2315 53.6126 99.2311C54.2152 99.2227 57.216 99.0187 57.216 95.6301C57.216 94.9675 57.7538 94.4273 58.4164 94.4273C59.079 94.4273 59.6167 94.9675 59.6167 95.6301C59.6167 99.0187 62.62 99.2227 63.2238 99.2311C63.5421 99.2272 63.849 99.3498 64.077 99.5721C64.3049 99.7944 64.4352 100.098 64.4391 100.416C64.4431 100.735 64.3205 101.042 64.0982 101.27C63.8759 101.498 63.5722 101.628 63.2538 101.632H63.2178C59.8328 101.632 59.6227 104.636 59.6167 105.239C59.6207 105.557 59.4981 105.864 59.2758 106.092C59.0535 106.32 58.7497 106.45 58.4314 106.454C58.113 106.458 57.8062 106.336 57.5782 106.113C57.3503 105.891 57.22 105.587 57.216 105.269V105.26C57.2171 105.26 57.2182 105.26 57.2192 105.259M57.216 105.233V105.239M57.216 105.233L57.2192 105.233C57.2162 104.936 57.163 104.035 56.6867 103.208C56.2102 102.381 55.3104 101.629 53.615 101.629C53.2975 101.629 52.9928 101.503 52.7681 101.279C52.5433 101.055 52.4169 100.75 52.4166 100.433C52.4163 100.115 52.5421 99.8105 52.7664 99.5858C52.9907 99.361 53.2951 99.2346 53.6126 99.2343C53.9141 99.2301 54.8156 99.1769 55.6418 98.7009C56.4683 98.2247 57.2192 97.3255 57.2192 95.6301C57.2192 94.9692 57.7555 94.4305 58.4164 94.4305C59.0773 94.4305 59.6136 94.9692 59.6136 95.6301C59.6136 97.3255 60.3651 98.2247 61.1923 98.7009C62.0193 99.1769 62.9217 99.2301 63.2237 99.2343H63.2238C63.5414 99.2303 63.8474 99.3526 64.0748 99.5743C64.3021 99.7961 64.4321 100.099 64.436 100.417C64.44 100.734 64.3177 101.04 64.0959 101.267C63.8742 101.495 63.5713 101.625 63.2538 101.629H63.2178C61.5241 101.629 60.6244 102.38 60.1474 103.208C59.6707 104.035 59.6166 104.937 59.6136 105.239C59.6176 105.556 59.4953 105.863 59.2735 106.09C59.0518 106.317 58.7489 106.447 58.4314 106.451C58.1138 106.455 57.8077 106.333 57.5804 106.111C57.3531 105.889 57.2231 105.586 57.2192 105.269L57.2192 105.259M57.216 105.233H57.2192V105.238L57.2191 105.238L57.216 105.239M57.216 105.239C57.2165 105.241 57.2169 105.242 57.2174 105.244C57.2194 105.251 57.221 105.257 57.216 105.257H57.2192V105.259M57.216 105.239H57.2192L57.2209 105.245C57.2215 105.247 57.222 105.249 57.2223 105.251C57.2225 105.253 57.2226 105.255 57.2217 105.257C57.2212 105.258 57.2204 105.259 57.2193 105.259C57.2193 105.259 57.2192 105.259 57.2192 105.259M127.32 45.6963L127.32 45.6977V45.7045V45.7076V45.7107C127.32 45.7107 127.32 45.7108 127.32 45.7108L127.32 45.7112L127.32 45.7113V45.7146C127.32 45.7146 127.32 45.7147 127.32 45.7147C127.332 45.8977 127.414 46.069 127.549 46.1933C127.684 46.3177 127.862 46.3857 128.045 46.3834C128.229 46.3811 128.404 46.3087 128.536 46.181C128.668 46.0533 128.746 45.88 128.754 45.6968C128.754 45.6967 128.754 45.6967 128.754 45.6967L128.757 45.6968C128.76 45.3331 128.886 43.5326 130.917 43.5326L127.32 45.6963ZM127.32 45.6963V45.6932C127.318 45.5147 127.285 44.9739 126.999 44.4776C126.713 43.9811 126.172 43.5295 125.156 43.5294C124.973 43.5193 124.801 43.4396 124.674 43.3066C124.548 43.1736 124.478 42.9974 124.477 42.814C124.477 42.6307 124.546 42.4541 124.672 42.3205C124.797 42.1869 124.969 42.1063 125.152 42.0953L127.32 45.6963ZM134.536 127.554C134.719 127.542 134.891 127.46 135.015 127.325C135.14 127.191 135.208 127.013 135.207 126.83C135.205 126.647 135.133 126.471 135.005 126.339C134.878 126.207 134.705 126.128 134.522 126.12C134.522 126.12 134.522 126.12 134.522 126.12L134.522 126.117C134.158 126.113 132.358 125.987 132.358 123.956C132.358 123.861 132.339 123.768 132.303 123.68C132.267 123.593 132.214 123.514 132.147 123.447C132.08 123.38 132.001 123.327 131.913 123.291C131.826 123.254 131.732 123.236 131.638 123.236C131.543 123.236 131.449 123.254 131.362 123.291C131.275 123.327 131.195 123.38 131.128 123.447C131.062 123.514 131.008 123.593 130.972 123.68C130.936 123.768 130.917 123.861 130.917 123.956C130.917 125.987 129.117 126.113 128.753 126.117L134.536 127.554ZM134.536 127.554C134.536 127.554 134.536 127.554 134.536 127.554L134.536 127.554ZM131.414 43.3008C131.29 43.4354 131.118 43.5172 130.935 43.5294L125.152 42.0921C125.516 42.0885 127.316 41.9625 127.316 39.9315C127.316 39.8369 127.335 39.7433 127.371 39.6559C127.407 39.5685 127.46 39.4891 127.527 39.4222C127.594 39.3554 127.674 39.3023 127.761 39.2661C127.848 39.2299 127.942 39.2113 128.037 39.2113C128.131 39.2113 128.225 39.2299 128.312 39.2661C128.4 39.3023 128.479 39.3554 128.546 39.4222C128.613 39.4891 128.666 39.5685 128.702 39.6559C128.738 39.7433 128.757 39.8369 128.757 39.9315C128.757 41.9625 130.557 42.0885 130.921 42.0921L130.921 42.0953C130.921 42.0953 130.921 42.0953 130.921 42.0953C131.104 42.1039 131.277 42.1822 131.404 42.3143C131.532 42.4464 131.604 42.6221 131.606 42.8056C131.607 42.989 131.539 43.1662 131.414 43.3008ZM130.921 129.722L130.921 129.721L134.518 127.557C132.487 127.557 132.361 129.357 132.358 129.721L132.355 129.721C132.355 129.721 132.355 129.721 132.355 129.721C132.347 129.904 132.269 130.078 132.137 130.205C132.005 130.333 131.83 130.406 131.646 130.408C131.463 130.41 131.285 130.342 131.15 130.218C131.015 130.093 130.933 129.922 130.921 129.739C130.921 129.739 130.921 129.739 130.921 129.739V129.736L130.921 129.736L130.921 129.735C130.921 129.735 130.921 129.735 130.921 129.735V129.732V129.729V129.722ZM118.434 74.0245C126.383 74.0245 132.835 80.4762 132.835 88.4256C132.835 96.375 126.383 102.827 118.434 102.827C110.484 102.827 104.033 96.375 104.033 88.4256C104.033 80.4762 110.484 74.0245 118.434 74.0245ZM125.639 89.866V86.9852H125.636V86.9821H119.877V81.2235H119.874V81.2204H116.993V81.2235H116.99V86.9821H111.232V86.9852H111.229V89.866H111.232V89.8691H116.99V95.6277H116.993V95.6308H119.874V95.6277H119.877V89.8691H125.636V89.866H125.639Z" fill="#D04B4F" stroke="#4A4A4A" stroke-width="0.00625"/>
</svg>
