<svg width="18" height="20" viewBox="0 0 18 20" fill="none" xmlns="http://www.w3.org/2000/svg">
<path d="M17.7112 8.47317H0.288925C0.129382 8.47317 0 8.34379 0 8.18424V4.55714C0 4.39775 0.129382 4.26837 0.288925 4.26837H17.7112C17.8706 4.26837 18 4.39775 18 4.55714V8.18424C17.9989 8.34486 17.8706 8.47317 17.7112 8.47317ZM0.577807 7.89654H17.4223V4.84607H0.577807V7.89654Z" fill="black"/>
<path d="M16.4398 19.5114H1.55943C1.40004 19.5114 1.27051 19.382 1.27051 19.2225V8.18422C1.27051 8.02483 1.40004 7.89545 1.55943 7.89545C1.71898 7.89545 1.84836 8.02483 1.84836 8.18422V18.9336H16.1521V8.18422C16.1521 8.02483 16.2815 7.89545 16.4409 7.89545C16.6005 7.89545 16.7298 8.02483 16.7298 8.18422V19.2225C16.7288 19.3831 16.5992 19.5114 16.4398 19.5114H16.4398Z" fill="black"/>
<path d="M11.0997 8.47317H6.90172C6.74233 8.47317 6.61279 8.34379 6.61279 8.18424V4.55714C6.61279 4.39775 6.74233 4.26837 6.90172 4.26837H11.0997C11.2593 4.26837 11.3886 4.39775 11.3886 4.55714V8.18424C11.3886 8.34486 11.2603 8.47317 11.0997 8.47317ZM7.19072 7.89654H10.812V4.84607H7.19072V7.89654Z" fill="black"/>
<path d="M10.6193 19.5113H7.38512C7.22557 19.5113 7.09619 19.382 7.09619 19.2224V8.18413C7.09619 8.02474 7.22557 7.8952 7.38512 7.8952H10.6193C10.7789 7.8952 10.907 8.02474 10.907 8.18413V19.2224C10.907 19.383 10.7777 19.5113 10.6193 19.5113ZM7.67282 18.9347H10.3293V8.47301H7.67282V18.9347Z" fill="black"/>
<path d="M8.90699 4.84617H4.38443C3.04867 4.84617 1.96143 3.75876 1.96143 2.423C1.96143 1.09199 3.02343 0.0278691 4.37879 0H4.42732C7.02476 0 9.0804 4.25092 9.16703 4.43358C9.20975 4.52269 9.20271 4.62772 9.15065 4.71209C9.09874 4.79539 9.00626 4.84622 8.90689 4.84622L8.90699 4.84617ZM4.39031 0.578C3.3528 0.598823 2.53809 1.40988 2.53809 2.42438C2.53809 3.44228 3.36644 4.2697 4.38326 4.2697H8.43074C7.85764 3.22164 6.21948 0.534021 4.39031 0.57796V0.578ZM4.38449 0.289074H4.38664H4.38449Z" fill="black"/>
<path d="M13.5225 4.84613H8.99993C8.90056 4.84613 8.80915 4.79529 8.75587 4.712C8.70274 4.62886 8.69707 4.52367 8.73979 4.43348C8.82645 4.2499 10.9213 -0.0475238 13.5293 0.00108056C14.8846 0.028794 15.9466 1.09291 15.9466 2.42409C15.9454 3.75984 14.858 4.84603 13.5222 4.84603L13.5225 4.84613ZM9.475 4.2695H13.5225C14.5404 4.2695 15.368 3.44099 15.368 2.42418C15.368 1.41086 14.5545 0.599674 13.5157 0.577802C11.6867 0.545343 10.0492 3.22145 9.47492 4.26954L9.475 4.2695Z" fill="black"/>
</svg>
