<svg width="9" height="14" viewBox="0 0 9 14" fill="none" xmlns="http://www.w3.org/2000/svg">
<path d="M4.50018 0C2.03728 0 0 1.94124 0 4.66685C0 5.63507 0.235548 6.33754 0.656306 7.07835L4.06775 13.0786C4.15727 13.2326 4.3219 13.3273 4.5 13.3273C4.6781 13.3273 4.84275 13.2326 4.93225 13.0786L8.34369 7.07835C8.76445 6.33751 9 5.63507 9 4.66685C9 1.94121 6.96275 0 4.49982 0H4.50018ZM4.50018 1.0001C6.4557 1.0001 8.00032 2.42176 8.00032 4.66691C8.00032 5.49016 7.84906 5.92372 7.47423 6.58359L4.50012 11.8234L1.52601 6.58359C1.15118 5.92369 0.99992 5.49016 0.99992 4.66691C0.99992 2.42176 2.54457 1.0001 4.50006 1.0001H4.50018ZM4.50018 2.0002C3.12539 2.0002 2.00008 3.12551 2.00008 4.5003C2.00008 5.87508 3.12539 7.0004 4.50018 7.0004C5.87497 7.0004 7.00028 5.87508 7.00028 4.5003C7.00028 3.12551 5.87497 2.0002 4.50018 2.0002ZM4.50018 3.0003C5.33459 3.0003 6.00018 3.66601 6.00018 4.5003C6.00018 5.33459 5.33447 6.0003 4.50018 6.0003C3.66577 6.0003 3.00018 5.33459 3.00018 4.5003C3.00018 3.66589 3.66589 3.0003 4.50018 3.0003Z" fill="#D96D70"/>
</svg>
