<svg width="14" height="11" viewBox="0 0 14 11" fill="none" xmlns="http://www.w3.org/2000/svg">
<path d="M2.1226 0H12.5117C12.9062 0.000647178 13.2845 0.157584 13.5634 0.436606C13.8423 0.715546 13.9994 1.0937 14 1.48825V9.30199C13.9994 9.69654 13.8423 10.0747 13.5634 10.3536C13.2845 10.6327 12.9062 10.7896 12.5117 10.7902H2.1226C1.72805 10.7896 1.3499 10.6327 1.07085 10.3536C0.791911 10.0747 0.63488 9.69654 0.634245 9.30199V1.48825C0.634892 1.0937 0.791936 0.715546 1.07085 0.436606C1.34987 0.157584 1.72805 0.000635084 2.1226 0ZM12.5117 0.483216H2.1226C1.85597 0.483216 1.60034 0.589134 1.41181 0.777564C1.22338 0.966104 1.11746 1.22174 1.11746 1.48825V2.58993L13.5218 2.59004V1.48825C13.5218 1.22172 13.4158 0.966098 13.2274 0.777561C13.0389 0.589129 12.7832 0.483213 12.5166 0.483213L12.5117 0.483216ZM2.1226 10.3069H12.5117C12.7783 10.3069 13.0339 10.2009 13.2224 10.0125C13.4109 9.82397 13.5168 9.56834 13.5168 9.30182V3.07331H1.11746V9.30182C1.11746 9.56835 1.22338 9.82397 1.41181 10.0125C1.60035 10.2009 1.85598 10.3069 2.1226 10.3069Z" fill="#D96D70"/>
<path d="M6.03223 7.73138H2.1665V8.2146H6.03223V7.73138Z" fill="#D96D70"/>
</svg>
