<svg width="13" height="15" viewBox="0 0 13 15" fill="none" xmlns="http://www.w3.org/2000/svg">
<path d="M12.7914 6.11944H0.208668C0.0934423 6.11944 0 6.026 0 5.91077V3.2912C0 3.17608 0.0934423 3.08264 0.208668 3.08264H12.7914C12.9066 3.08264 13 3.17608 13 3.2912V5.91077C12.9992 6.02677 12.9066 6.11944 12.7914 6.11944ZM0.417305 5.70299H12.5828V3.49987H0.417305V5.70299Z" fill="black"/>
<path d="M11.8731 14.0916H1.12615C1.01103 14.0916 0.91748 13.9981 0.91748 13.8829V5.91083C0.91748 5.79571 1.01103 5.70227 1.12615 5.70227C1.24137 5.70227 1.33482 5.79571 1.33482 5.91083V13.6743H11.6653V5.91083C11.6653 5.79571 11.7588 5.70227 11.8739 5.70227C11.9891 5.70227 12.0826 5.79571 12.0826 5.91083V13.8829C12.0818 13.9989 11.9882 14.0916 11.8731 14.0916H11.8731Z" fill="black"/>
<path d="M8.01644 6.11944H4.98455C4.86943 6.11944 4.77588 6.026 4.77588 5.91077V3.2912C4.77588 3.17608 4.86943 3.08264 4.98455 3.08264H8.01644C8.13166 3.08264 8.22511 3.17608 8.22511 3.2912V5.91077C8.22511 6.02677 8.13244 6.11944 8.01644 6.11944ZM5.19327 5.70299H7.80865V3.49987H5.19327V5.70299Z" fill="black"/>
<path d="M7.6695 14.0915H5.33367C5.21844 14.0915 5.125 13.998 5.125 13.8828V5.91069C5.125 5.79558 5.21844 5.70203 5.33367 5.70203H7.6695C7.78472 5.70203 7.87728 5.79558 7.87728 5.91069V13.8828C7.87728 13.9988 7.78384 14.0915 7.6695 14.0915ZM5.54146 13.675H7.46004V6.11933H5.54146V13.675Z" fill="black"/>
<path d="M6.43274 3.50001H3.16645C2.20174 3.50001 1.4165 2.71466 1.4165 1.74995C1.4165 0.78866 2.18351 0.0201277 3.16237 0H3.19743C5.07335 0 6.55799 3.07011 6.62055 3.20203C6.6514 3.26639 6.64632 3.34225 6.60872 3.40318C6.57123 3.46333 6.50444 3.50005 6.43267 3.50005L6.43274 3.50001ZM3.1707 0.417444C2.42139 0.432483 1.83299 1.01825 1.83299 1.75094C1.83299 2.48609 2.43124 3.08367 3.1656 3.08367H6.08879C5.67488 2.32674 4.49176 0.385682 3.1707 0.417416V0.417444ZM3.1665 0.208776H3.16804H3.1665Z" fill="black"/>
<path d="M9.76616 3.49998H6.49987C6.4281 3.49998 6.36209 3.46327 6.3236 3.40311C6.28523 3.34307 6.28114 3.2671 6.31199 3.20196C6.37458 3.06937 7.88756 -0.0343193 9.77107 0.000783794C10.7499 0.0207991 11.5169 0.789331 11.5169 1.75073C11.5161 2.71545 10.7307 3.49992 9.76597 3.49992L9.76616 3.49998ZM6.84298 3.08353H9.76616C10.5013 3.08353 11.099 2.48516 11.099 1.7508C11.099 1.01896 10.5115 0.433102 9.76129 0.417305C8.44028 0.393862 7.2577 2.3266 6.84292 3.08356L6.84298 3.08353Z" fill="black"/>
</svg>
