<svg width="15" height="14" viewBox="0 0 15 14" fill="none" xmlns="http://www.w3.org/2000/svg">
<path d="M8.14397 6.69329C8.23543 6.78497 8.35959 6.83664 8.48909 6.83664C8.61871 6.83664 8.74287 6.78497 8.83422 6.69329L12.559 2.96911V5.04634C12.559 5.22086 12.652 5.38208 12.8031 5.46929C12.9542 5.5565 13.1404 5.5565 13.2915 5.46929C13.4426 5.38208 13.5357 5.22086 13.5357 5.04634V1.79044C13.5355 1.72612 13.5227 1.66235 13.4979 1.60294C13.478 1.56064 13.452 1.5215 13.4204 1.48706C13.4121 1.47234 13.4027 1.45817 13.3925 1.44465C13.372 1.42896 13.3502 1.415 13.3273 1.40301C13.2986 1.37761 13.2669 1.3557 13.2329 1.33793C13.1739 1.31395 13.1109 1.30185 13.0473 1.30207H9.79143C9.6169 1.30207 9.45568 1.39516 9.36847 1.54625C9.28126 1.69734 9.28126 1.88353 9.36847 2.03462C9.45568 2.18571 9.61691 2.27881 9.79143 2.27881H11.8673L8.144 6.00298C8.05243 6.09444 8.00098 6.21861 8.00098 6.34811C8.00098 6.4775 8.05243 6.60167 8.144 6.69323L8.14397 6.69329Z" fill="black"/>
<path d="M14.3495 5.86055C14.22 5.86055 14.0958 5.91201 14.0042 6.00358C13.9126 6.09514 13.8611 6.21931 13.8611 6.34892V12.2094C13.8608 12.4251 13.7749 12.6319 13.6224 12.7845C13.4698 12.937 13.263 13.0229 13.0473 13.0232H2.62851C2.41277 13.0229 2.20597 12.937 2.05338 12.7845C1.90087 12.6319 1.81497 12.4251 1.81464 12.2094V1.79061C1.81497 1.57488 1.90087 1.36807 2.05338 1.21548C2.20599 1.06297 2.41279 0.977068 2.62851 0.976742H8.48896C8.66349 0.976742 8.82471 0.883647 8.91192 0.732556C8.99913 0.581465 8.99913 0.395273 8.91192 0.244185C8.82471 0.0930947 8.66348 0 8.48896 0H2.62851C2.15376 0.000327041 1.69843 0.189133 1.36268 0.524789C1.02704 0.860537 0.838226 1.31589 0.837891 1.79062V12.2094C0.838218 12.6841 1.02702 13.1395 1.36268 13.4752C1.69843 13.8108 2.15378 13.9997 2.62851 14H13.0473C13.522 13.9997 13.9774 13.8109 14.3131 13.4752C14.6487 13.1395 14.8376 12.6841 14.8379 12.2094V6.34893C14.8379 6.21932 14.7864 6.09515 14.6949 6.00358C14.6033 5.91202 14.4791 5.86056 14.3495 5.86056L14.3495 5.86055Z" fill="black"/>
</svg>
