<svg width="13" height="13" viewBox="0 0 13 13" fill="none" xmlns="http://www.w3.org/2000/svg">
<path d="M6.3751 2.51098e-05C4.68436 2.51098e-05 3.06281 0.671678 1.86718 1.86721C0.671653 3.06284 0 4.68431 0 6.37513C0 8.06594 0.671653 9.68742 1.86718 10.883C3.06281 12.0786 4.68429 12.7502 6.3751 12.7502C8.06592 12.7502 9.68739 12.0786 10.883 10.883C12.0786 9.68742 12.7502 8.06594 12.7502 6.37513C12.749 4.68469 12.077 3.06384 10.8817 1.86846C9.68641 0.673236 8.06564 0.00118081 6.37508 0L6.3751 2.51098e-05ZM6.3751 12.3106C4.80096 12.3106 3.29119 11.6852 2.17821 10.5721C1.06511 9.45904 0.439788 7.94924 0.439788 6.37525C0.439788 4.80126 1.06514 3.29134 2.17821 2.17836C3.29131 1.06526 4.80111 0.439938 6.3751 0.439938C7.94909 0.439938 9.45902 1.06529 10.572 2.17836C11.6851 3.29146 12.3104 4.80126 12.3104 6.37525C12.3081 7.94872 11.682 9.45716 10.5694 10.5696C9.45683 11.6821 7.94854 12.3083 6.37505 12.3106L6.3751 12.3106Z" fill="#FC615D"/>
<path d="M10.9648 6.15534H7.00783C6.94031 5.96927 6.79379 5.82276 6.60771 5.75523V1.14757C6.60771 1.02617 6.50937 0.927734 6.38788 0.927734C6.26648 0.927734 6.16805 1.02617 6.16805 1.14757V5.75523C5.95371 5.82991 5.79285 6.0096 5.74223 6.23081C5.69159 6.45212 5.75822 6.68382 5.91878 6.84438C6.07924 7.00484 6.31103 7.07157 6.53225 7.02093C6.75355 6.9702 6.93314 6.80934 7.00783 6.59501H10.9648C11.0862 6.59501 11.1846 6.49658 11.1846 6.37518C11.1846 6.25378 11.0862 6.15535 10.9648 6.15535L10.9648 6.15534ZM6.37471 6.59501C6.2858 6.59501 6.20562 6.54142 6.17166 6.45928C6.13761 6.37714 6.15636 6.28263 6.21926 6.21972C6.28217 6.15681 6.37668 6.13807 6.45882 6.17213C6.54096 6.20608 6.59454 6.28626 6.59454 6.37517C6.59454 6.43347 6.57138 6.48941 6.53017 6.53063C6.48895 6.57184 6.43301 6.59501 6.37471 6.59501Z" fill="#FC615D"/>
</svg>
