<svg width="12" height="14" viewBox="0 0 12 14" fill="none" xmlns="http://www.w3.org/2000/svg">
<path d="M10.6811 13.8004H0.819152C0.368322 13.8004 0 13.4314 0 12.9789C0 9.99915 2.22434 8.54303 5.75008 8.54303C9.27582 8.54303 11.5002 9.9991 11.5002 12.9789C11.5002 13.4302 11.1341 13.8004 10.681 13.8004H10.6811ZM5.7502 9.52882C2.77571 9.52882 1.0684 10.5999 0.988897 12.8146H10.5117C10.4322 10.5999 8.72493 9.52882 5.75043 9.52882H5.7502ZM5.7502 7.88594C3.93247 7.88594 2.62878 5.87288 2.62878 3.77874C2.62878 1.75242 3.91457 0 5.7502 0C7.58582 0 8.87161 1.75242 8.87161 3.77874C8.87161 5.87288 7.56793 7.88594 5.7502 7.88594ZM5.7502 6.90015C6.91107 6.90015 7.88582 5.39504 7.88582 3.77874C7.88582 2.24241 6.96376 0.985728 5.7502 0.985728C4.53664 0.985728 3.61457 2.24241 3.61457 3.77874C3.61457 5.39504 4.58933 6.90015 5.7502 6.90015Z" fill="#FC615D"/>
</svg>
